#N canvas 0 22 372 335 16;
#X declare -lib iemmatrix;
#X declare -lib iemmatrix;
#X obj 169 15 inlet size;
#X text -18 291 Juan Ignacio Mendoza Garay - 2016;
#X obj -20 255 outlet checkerboard matrix;
#X obj 216 145 mtx;
#X msg 216 115 ones \$1;
#X obj 216 85 / 2;
#X msg -20 115 matrix 2 2 -1 1 1 -1;
#X obj 169 45 t b f;
#X obj -20 15 import iemmatrix;
#X obj -20 215 kron_2D;
#X connect 0 0 7 0;
#X connect 3 0 9 1;
#X connect 4 0 3 0;
#X connect 5 0 4 0;
#X connect 6 0 9 0;
#X connect 7 0 6 0;
#X connect 7 1 5 0;
#X connect 9 0 2 0;
