#N canvas 253 125 281 535 12;
#X obj -28 9 inlet;
#X obj -5 129 i;
#X obj 192 9 inlet;
#X obj 174 469 + 0;
#X obj 122 69 loadbang;
#X obj -28 250 spigot;
#X msg -6 219 0;
#X msg 34 219 1;
#X obj 80 435 spigot;
#X msg 103 399 0;
#X msg 143 399 1;
#X obj -17 441 spigot;
#X msg 6 405 0;
#X msg 46 405 1;
#X obj 69 339 s \$0-tri;
#X obj -28 340 s \$0-tri;
#X obj 80 369 r \$0-int;
#X obj -17 370 r \$0-int;
#X obj -17 509 outlet;
#X text 36 26 0 = floor (default);
#X text 36 46 1 = ceil;
#X obj 18 69 s \$0-trr;
#X obj 34 189 r \$0-trr;
#X text 36 509 Juan Ignacio Mendoza - 2019;
#X obj -28 310 trigger b b;
#X obj 69 309 trigger b b;
#X obj -28 39 t a a b;
#X text 16 6 ARGUMENT OR RIGHT INLET:;
#X obj 122 99 \$1;
#X obj 17 99 r \$0-tri;
#X obj 18 159 s \$0-int;
#X obj -28 189 -;
#X obj -28 280 select 0;
#X connect 0 0 26 0;
#X connect 1 0 30 0;
#X connect 1 0 31 1;
#X connect 2 0 3 1;
#X connect 3 0 18 0;
#X connect 4 0 28 0;
#X connect 5 0 6 0;
#X connect 5 0 32 0;
#X connect 6 0 5 1;
#X connect 7 0 5 1;
#X connect 8 0 9 0;
#X connect 8 0 3 0;
#X connect 9 0 8 1;
#X connect 10 0 8 1;
#X connect 11 0 12 0;
#X connect 11 0 18 0;
#X connect 12 0 11 1;
#X connect 13 0 11 1;
#X connect 16 0 8 0;
#X connect 17 0 11 0;
#X connect 22 0 7 0;
#X connect 24 0 15 0;
#X connect 24 1 13 0;
#X connect 25 0 14 0;
#X connect 25 1 10 0;
#X connect 26 0 31 0;
#X connect 26 1 1 0;
#X connect 26 2 21 0;
#X connect 28 0 3 1;
#X connect 29 0 1 0;
#X connect 31 0 5 0;
#X connect 32 0 24 0;
#X connect 32 1 25 0;
