#N canvas 0 22 389 383 12;
#X obj 24 27 inlet control;
#X obj 214 27 inlet signal;
#X obj 24 317 outlet signal_1;
#X obj 214 317 outlet signal_2;
#X obj 24 127 select 1 2;
#X obj 24 277 spigot;
#X msg 103 227 1;
#X msg 143 227 0;
#X obj 214 277 spigot;
#X msg 303 227 1;
#X msg 253 227 0;
#X obj 34 57 loadbang;
#X msg 34 87 1;
#X connect 0 0 4 0;
#X connect 1 0 5 0;
#X connect 1 0 8 0;
#X connect 4 0 10 0;
#X connect 4 0 6 0;
#X connect 4 1 7 0;
#X connect 4 1 9 0;
#X connect 5 0 2 0;
#X connect 6 0 5 1;
#X connect 7 0 5 1;
#X connect 8 0 3 0;
#X connect 9 0 8 1;
#X connect 10 0 8 1;
#X connect 11 0 12 0;
#X connect 12 0 4 0;
