#N canvas -4 80 480 338 16;
#X declare -lib iemmatrix;
#X declare -lib iemmatrix;
#X declare -lib iemmatrix;
#X declare -lib list-abs;
#X declare -lib iemmatrix;
#X declare -lib smlib;
#X obj 193 15 inlet size;
#X obj 183 195 mtx_.*;
#X obj 193 55 t f f;
#X text 79 295 Juan Ignacio Mendoza Garay - 2016;
#X obj 183 235 outlet;
#X text 31 265 gaussian-tapered checkerboard kernel matrix;
#X obj 40 105 pipe 10;
#X obj 240 135 checkerboard_matrix_2D;
#X obj 40 135 gaussian_kernel_2D;
#X connect 0 0 2 0;
#X connect 1 0 4 0;
#X connect 2 0 6 0;
#X connect 2 1 7 0;
#X connect 6 0 8 0;
#X connect 7 0 1 1;
#X connect 8 0 1 0;
