#N canvas 283 100 407 380 16;
#X declare -lib iemmatrix;
#X declare -lib list-abs;
#X declare -lib iemmatrix;
#X declare -lib list-abs;
#N canvas 0 22 450 300 (subpatch) 0;
#X array \$0-view_window 30 float 1;
#A 0 9.87818e-05 0.000337353 0.00105534 0.00302412 0.00793791 0.0190858
0.0420355 0.084805 0.15672 0.265295 0.411369 0.584297 0.760214 0.906018
0.989094 0.989094 0.906018 0.760214 0.584297 0.411369 0.265295 0.15672
0.084805 0.0420355 0.0190858 0.00793791 0.00302412 0.00105534 0.000337353
9.87818e-05;
#X coords 0 1.1 29 0 101 80 1;
#X restore 143 225 graph;
#X obj 143 169 s \$0-view_window;
#X obj 143 49 inlet window size;
#X obj -37 189 mtx_.*;
#X text 38 169 -;
#X text 41 177 |;
#X text 41 202 |;
#X text 41 228 |;
#X text 38 233 -;
#X obj -37 -1 import iemmatrix;
#X obj 163 -1 import list-abs;
#X obj -37 219 mtx_sum;
#X obj -37 282 outlet filtered;
#X obj -37 49 inlet signal;
#N canvas 526 311 336 237 mtx2tab 0;
#X obj 7 -16 inlet;
#X obj 224 174 outlet;
#X obj 7 14 t a a;
#X obj 54 44 mtx_size;
#X obj 7 94 list split 3;
#X obj 224 94 change;
#X msg 224 124 resize \$1;
#X obj 65 124 list prepend 0;
#X connect 0 0 2 0;
#X connect 2 0 4 0;
#X connect 2 1 3 0;
#X connect 3 0 5 0;
#X connect 4 1 7 0;
#X connect 5 0 6 0;
#X connect 6 0 1 0;
#X connect 7 0 1 0;
#X restore 143 129 pd mtx2tab;
#X text 41 215 |;
#X text 41 189 |;
#X obj 143 89 gauss_window;
#X obj -37 89 square_window;
#X text -27 324 Juan Ignacio Mendoza Garay - 2019;
#X text 50 199 product;
#X connect 2 0 17 0;
#X connect 2 0 18 1;
#X connect 3 0 11 0;
#X connect 11 0 12 0;
#X connect 13 0 18 0;
#X connect 14 0 1 0;
#X connect 17 0 14 0;
#X connect 17 0 3 1;
#X connect 18 0 3 0;
