#N canvas 0 22 457 535 16;
#X declare -lib iemmatrix;
#X declare -lib list-abs;
#X declare -lib iemmatrix;
#X declare -lib smlib;
#X obj 22 85 expr ($f1-1)/2;
#X obj 22 145 * -1;
#X obj 22 115 t f f;
#X obj 140 5 inlet size;
#X obj 237 195 expr 8*atan(1)/$f1;
#X obj 140 45 t f f f;
#X obj 96 255 mtx_mul 2;
#X obj 96 285 t a a;
#X obj 96 325 mtx_.*;
#X obj 96 355 mtx_.* -0.5;
#X obj 237 255 mtx_mul 2;
#X obj 237 285 t a a;
#X obj 237 325 mtx_.*;
#X obj 237 355 mtx_.* -0.5;
#X obj 136 405 mtx_add;
#X obj 136 435 mtx_exp;
#X obj 136 465 outlet gaussian kernel matrix;
#X text 58 501 Juan Ignacio Mendoza Garay - 2016;
#X obj 270 5 import iemmatrix;
#X obj 270 35 import list-abs;
#X obj 96 195 meshgrid;
#X connect 0 0 2 0;
#X connect 1 0 20 0;
#X connect 2 0 1 0;
#X connect 2 1 20 1;
#X connect 3 0 5 0;
#X connect 4 0 6 1;
#X connect 4 0 10 1;
#X connect 5 0 0 0;
#X connect 5 1 20 2;
#X connect 5 2 4 0;
#X connect 6 0 7 0;
#X connect 7 0 8 0;
#X connect 7 1 8 1;
#X connect 8 0 9 0;
#X connect 9 0 14 1;
#X connect 10 0 11 0;
#X connect 11 0 12 0;
#X connect 11 1 12 1;
#X connect 12 0 13 0;
#X connect 13 0 14 0;
#X connect 14 0 15 0;
#X connect 15 0 16 0;
#X connect 20 0 6 0;
#X connect 20 1 10 0;
