#N canvas 214 22 1096 808 16;
#X declare -lib iemmatrix;
#X declare -lib hexloader;
#X obj -151 759 gemwin 30;
#X obj 57 368 gemhead;
#X obj 57 649 pix_texture;
#X msg -151 318 destroy;
#X obj 292 38 inlet matrix;
#X obj 57 679 square 4;
#X obj -111 159 select 0 1;
#X msg -63 318 \$1;
#X msg -111 279 0;
#X msg -63 278 1;
#X obj -63 369 select 1;
#X obj 440 38 inlet dimensions;
#X obj 652 78 loadbang;
#X msg 462 128 400 400;
#X obj -93 679 list;
#X obj 105 38 inlet norm on/off;
#X obj -111 38 inlet display on/off;
#X obj 176 128 route matrix;
#X obj 176 158 list split 2;
#N canvas 302 148 639 445 dynamic_pix_set 0;
#N canvas 113 431 416 155 \$0-pix_set 0;
#X restore 14 287 pd \$0-pix_set;
#X obj 204 23 inlet size;
#X obj 14 247 s pd-\$0-pix_set;
#X obj 14 23 inlet pix_set_in1;
#X obj 14 367 outlet pix_set_out;
#X obj 14 337 r \$0-pix_set_out;
#X obj 14 63 s \$0-pix_set_in1;
#X obj 335 63 s \$0-pix_set_in2;
#X obj 335 23 inlet pix_set_in2;
#X text 14 407 Juan Ignacio Mendoza Garay - 2016;
#X obj 204 103 pack f f \$0;
#X msg 34 173 clear \, obj 0 60 pix_set \$1 \$2 \, obj 0 100 s \$3-pix_set_out
\, obj 0 0 r \$3-pix_set_in1 \, obj 200 0 r \$3-pix_set_in2 \, connect
0 0 1 0 \, connect 2 0 0 0 \, connect 3 0 0 1;
#X obj 204 63 unpack f f;
#X obj 14 103 loadbang;
#X msg 14 133 clear;
#X connect 1 0 12 0;
#X connect 3 0 6 0;
#X connect 5 0 4 0;
#X connect 8 0 7 0;
#X connect 10 0 11 0;
#X connect 11 0 2 0;
#X connect 12 0 10 0;
#X connect 12 1 10 1;
#X connect 13 0 14 0;
#X connect 14 0 2 0;
#X restore 57 598 pd dynamic_pix_set;
#X obj 65 278 change;
#X obj 162 278 change;
#X obj 145 368 pack f f;
#X obj 65 238 unpack f f;
#X obj 270 558 list;
#X obj 162 308 t b f;
#X obj 185 528 bang;
#X obj 8 128 loadbang;
#X msg 70 158 2;
#X msg 8 158 1;
#X obj 155 568 r \$0-ms;
#X obj 8 318 s \$0-ms;
#N canvas 315 323 483 509 normalise_matrix 0;
#X text 16 46 norm = (raw - min(raw)) / (max(raw)-min(raw));
#X obj 299 213 import iemmatrix;
#X obj 179 298 mtx_minmax;
#X obj 201 108 inlet raw matrix;
#X obj 65 258 t a a;
#X obj 8 108 inlet norm on/off;
#X obj 8 138 + 1;
#X obj 65 328 mtx_sub 1;
#X obj 65 398 mtx_./ 1;
#X obj 8 438 outlet matrix;
#X obj 48 138 loadbang;
#X obj 65 298 mtx;
#X obj 169 368 expr $f2-$f1;
#X text 9 78 default:;
#X text 139 78 on;
#X text 16 16 Normalise it \, don't criticise it.;
#X msg 48 178 2;
#X obj 299 253 import hexloader;
#X obj 8 228 gate_2;
#X text 74 469 Juan Ignacio Mendoza Garay - 2019;
#X connect 2 0 7 1;
#X connect 2 0 12 0;
#X connect 2 1 12 1;
#X connect 3 0 18 1;
#X connect 4 0 11 0;
#X connect 4 1 2 0;
#X connect 5 0 6 0;
#X connect 6 0 18 0;
#X connect 7 0 8 0;
#X connect 8 0 9 0;
#X connect 10 0 16 0;
#X connect 11 0 7 0;
#X connect 12 0 8 1;
#X connect 16 0 18 0;
#X connect 18 0 9 0;
#X connect 18 1 4 0;
#X restore 105 78 pd normalise_matrix;
#X text -147 8 default:;
#X text 43 8 off;
#X text 233 8 on;
#X text 514 8 400 400;
#X msg -63 529 quality 1;
#X obj 630 38 inlet quality;
#X msg 630 168 set quality \$1;
#X obj 630 208 s \$0-q;
#X obj -63 419 r \$0-q;
#X obj -63 449 t b a;
#X text 722 8 0;
#X obj -140 419 t b b;
#X msg 652 128 0;
#X msg 97 528 GREY;
#X obj 57 448 color;
#X msg 812 128 1 1 1;
#X obj 800 208 s \$0-RGB;
#X obj 800 38 inlet RGB;
#X text 832 8 1 1 1;
#X obj 320 368 r \$0-RGB;
#X obj 8 208 gate_2;
#X text 110 759 Juan Ignacio Mendoza Garay - 2019;
#X obj 440 208 s \$0-dim;
#X obj -56 649 r \$0-dim;
#X msg -93 719 dimen \$1 \$2 \, create \, color 0 0 0 \, FSAA 2 \,
1;
#X connect 1 0 47 0;
#X connect 2 0 5 0;
#X connect 3 0 0 0;
#X connect 4 0 32 1;
#X connect 6 0 3 0;
#X connect 6 0 8 0;
#X connect 6 1 9 0;
#X connect 7 0 1 0;
#X connect 7 0 10 0;
#X connect 8 0 7 0;
#X connect 9 0 7 0;
#X connect 10 0 44 0;
#X connect 11 0 55 0;
#X connect 12 0 13 0;
#X connect 12 0 45 0;
#X connect 12 0 48 0;
#X connect 13 0 55 0;
#X connect 14 0 57 0;
#X connect 15 0 32 0;
#X connect 16 0 6 0;
#X connect 17 0 18 0;
#X connect 18 0 53 1;
#X connect 18 1 19 2;
#X connect 18 1 24 1;
#X connect 19 0 2 0;
#X connect 20 0 22 0;
#X connect 21 0 25 0;
#X connect 22 0 19 1;
#X connect 22 0 46 0;
#X connect 22 0 26 0;
#X connect 23 0 20 0;
#X connect 23 1 21 0;
#X connect 24 0 19 2;
#X connect 25 0 22 0;
#X connect 25 1 22 1;
#X connect 26 0 24 0;
#X connect 27 0 29 0;
#X connect 28 0 53 0;
#X connect 29 0 53 0;
#X connect 30 0 19 1;
#X connect 32 0 17 0;
#X connect 37 0 2 0;
#X connect 38 0 39 0;
#X connect 39 0 40 0;
#X connect 41 0 42 0;
#X connect 42 0 37 0;
#X connect 42 1 37 0;
#X connect 44 0 37 0;
#X connect 44 1 14 0;
#X connect 45 0 39 0;
#X connect 46 0 19 0;
#X connect 47 0 19 0;
#X connect 48 0 49 0;
#X connect 50 0 49 0;
#X connect 52 0 47 1;
#X connect 53 0 28 0;
#X connect 53 0 31 0;
#X connect 53 1 23 0;
#X connect 56 0 14 1;
#X connect 57 0 0 0;
