#N canvas 506 162 288 362 12;
#X text -78 317 Juan Ignacio Mendoza Garay - 2018;
#X obj -79 68 inlet signal;
#X obj -79 288 outlet;
#X obj 101 68 inlet time;
#X text -78 17 let one sample of the signal pass;
#X text -78 33 then interrupt for some time (ms.);
#X obj 0 98 loadbang;
#X obj 37 127 \$1;
#X obj -79 238 spigot;
#X obj 69 158 delay;
#X obj 1 268 bang;
#X msg 0 198 1;
#X msg -40 198 0;
#X connect 1 0 8 0;
#X connect 3 0 9 1;
#X connect 6 0 7 0;
#X connect 6 0 11 0;
#X connect 7 0 9 1;
#X connect 8 0 2 0;
#X connect 8 0 10 0;
#X connect 8 0 12 0;
#X connect 9 0 11 0;
#X connect 10 0 9 0;
#X connect 11 0 8 1;
#X connect 12 0 8 1;
#X coords 0 0 1 1 48 46 0;
