#N canvas 0 22 410 577 16;
#X declare -lib iemmatrix;
#X obj 20 485 outlet kron matrix;
#X obj 20 55 inlet matrix A;
#X obj 200 55 inlet matrix B;
#X text 21 521 Juan Ignacio Mendoza Garay - 2016;
#X obj 40 125 mtx_size;
#X obj 180 125 import iemmatrix;
#X obj 200 85 s kr_B;
#X obj 167 305 r kr_B;
#X obj 117 165 s \$0-kr_scA;
#X obj 40 195 s \$0-kr_srA;
#X obj 69 245 r \$0-kr_scA;
#X obj 118 275 r \$0-kr_crA;
#N canvas 210 175 1037 657 kron_columns 0;
#X obj -67 5 inlet matrix A;
#X obj 662 3 inlet matrix B;
#X obj 147 576 mtx;
#X obj 147 474 pack f f f;
#X msg 147 506 element \$2 \$3;
#X obj 276 214 mtx;
#X obj 276 244 mtx_mul 2;
#X msg 70 205 1;
#X obj 30 255 cup;
#X obj 90 175 delay;
#X obj 352 494 mtx_concat row;
#X obj 352 364 spigot;
#X msg 489 244 1;
#X msg 539 244 0;
#X obj 589 454 mtx;
#X obj 589 364 spigot;
#X msg 726 242 1;
#X msg 776 242 0;
#X obj 30 327 select 0;
#X obj 30 294 expr $f2 - $f1 + 1;
#X obj 489 174 bang;
#X obj 207 5 inlet size_columns A;
#X obj 437 5 inlet current_row A;
#X obj 352 614 outlet kron row;
#X obj 276 144 trigger bang float;
#X obj 147 364 trigger bang float;
#X obj -40 115 bang;
#X obj -40 175 delay;
#X obj -67 35 s \$0-krc_A;
#X obj 174 546 r \$0-krc_A;
#X obj -40 85 r \$0-krc_t;
#X obj 362 414 s \$0-krc_t;
#X obj 629 414 s \$0-krc_t;
#X obj 629 454 s \$0-krc_fd;
#X obj 776 212 r \$0-krc_fd;
#X obj 489 144 r \$0-krc_fd;
#X obj 30 456 s \$0-krc_0;
#X obj 90 145 r \$0-krc_0;
#X obj 276 95 r \$0-krc_el;
#X obj 147 606 s \$0-krc_el;
#X obj 372 534 s \$0-krc_cc;
#X obj 442 364 r s \$0-krc_cc;
#X obj 662 33 s \$0-krc_B;
#X obj 484 65 s \$0-krc_crA;
#X obj 160 403 r \$0-krc_crA;
#X obj 437 95 s \$0-krc_t;
#X obj 437 35 t b a;
#X obj 303 174 r \$0-krc_B;
#X obj 589 244 r \$0-krc_mul;
#X obj 326 284 s \$0-krc_mul;
#X obj 70 85 r \$0-krc_crA;
#X obj 70 115 bang;
#X obj 623 174 r \$0-krc_crA;
#X connect 0 0 28 0;
#X connect 1 0 42 0;
#X connect 2 0 39 0;
#X connect 3 0 4 0;
#X connect 4 0 2 0;
#X connect 5 0 6 0;
#X connect 6 0 11 0;
#X connect 6 0 49 0;
#X connect 7 0 8 0;
#X connect 8 0 19 0;
#X connect 9 0 7 0;
#X connect 10 0 23 0;
#X connect 10 0 40 0;
#X connect 11 0 10 0;
#X connect 11 0 31 0;
#X connect 12 0 11 1;
#X connect 13 0 11 1;
#X connect 14 0 10 1;
#X connect 15 0 14 0;
#X connect 15 0 32 0;
#X connect 15 0 33 0;
#X connect 16 0 15 1;
#X connect 17 0 15 1;
#X connect 18 0 36 0;
#X connect 18 1 25 0;
#X connect 19 0 18 0;
#X connect 20 0 12 0;
#X connect 21 0 19 1;
#X connect 22 0 46 0;
#X connect 24 0 5 0;
#X connect 24 1 6 1;
#X connect 25 0 3 0;
#X connect 25 1 3 2;
#X connect 26 0 27 0;
#X connect 27 0 8 0;
#X connect 29 0 2 1;
#X connect 30 0 26 0;
#X connect 34 0 17 0;
#X connect 35 0 20 0;
#X connect 37 0 9 0;
#X connect 38 0 24 0;
#X connect 41 0 14 0;
#X connect 44 0 3 1;
#X connect 46 0 45 0;
#X connect 46 1 43 0;
#X connect 47 0 5 1;
#X connect 48 0 15 0;
#X connect 50 0 51 0;
#X connect 51 0 7 0;
#X connect 52 0 13 0;
#X connect 52 0 16 0;
#X restore 20 335 pd kron_columns;
#N canvas 216 120 993 496 kron_rows 0;
#X obj -291 -91 inlet row;
#X obj 504 -93 inlet size_rows A;
#X obj 404 369 outlet current_row A;
#X obj -291 370 outlet kron matrix;
#X msg 397 177 1;
#X obj 257 219 cup;
#X obj 397 147 delay;
#X obj 327 299 select 0;
#X obj 327 269 expr $f2 - $f1 + 1;
#X obj 257 139 bang;
#X obj 257 169 delay;
#X obj 504 -43 t f b;
#X obj 397 87 r \$0-krr_0;
#X obj 287 339 s \$0-krr_0;
#X obj 180 87 r \$0-krr_t;
#X obj -291 139 spigot;
#X msg -154 89 1;
#X msg -104 89 0;
#X obj -54 219 mtx;
#X obj -54 139 spigot;
#X msg 83 87 1;
#X msg 133 87 0;
#X obj -291 259 mtx_concat;
#X obj -271 309 s \$0-krr_cc;
#X obj -201 139 r s \$0-krr_cc;
#X obj -14 179 s \$0-krr_t;
#X obj -14 219 s \$0-krr_fd;
#X obj 133 47 r \$0-krr_fd;
#X obj -154 -11 r \$0-krr_fd;
#X obj -54 89 r \$0-krr_row;
#X obj -271 -41 s \$0-krr_row;
#X obj -281 179 s \$0-krr_t;
#X obj 551 -3 s \$0-krr_srA;
#X obj 83 -63 r \$0-krr_srA;
#X obj 308 67 t b b;
#X obj -154 19 bang;
#X obj -154 49 delay;
#X connect 0 0 30 0;
#X connect 0 0 15 0;
#X connect 1 0 11 0;
#X connect 4 0 5 0;
#X connect 5 0 8 0;
#X connect 6 0 4 0;
#X connect 7 0 13 0;
#X connect 7 1 2 0;
#X connect 8 0 7 0;
#X connect 9 0 10 0;
#X connect 10 0 5 0;
#X connect 11 0 8 1;
#X connect 11 1 32 0;
#X connect 12 0 6 0;
#X connect 14 0 9 0;
#X connect 15 0 22 0;
#X connect 15 0 31 0;
#X connect 16 0 15 1;
#X connect 17 0 15 1;
#X connect 18 0 22 1;
#X connect 19 0 18 0;
#X connect 19 0 25 0;
#X connect 19 0 26 0;
#X connect 20 0 19 1;
#X connect 21 0 19 1;
#X connect 22 0 23 0;
#X connect 22 0 3 0;
#X connect 24 0 18 0;
#X connect 27 0 21 0;
#X connect 28 0 35 0;
#X connect 29 0 19 0;
#X connect 33 0 17 0;
#X connect 33 0 20 0;
#X connect 33 0 34 0;
#X connect 34 0 9 0;
#X connect 34 1 6 0;
#X connect 35 0 36 0;
#X connect 36 0 16 0;
#X restore 20 405 pd kron_rows;
#X obj 137 375 r \$0-kr_srA;
#X obj 137 435 s \$0-kr_crA;
#X text 55 11 Kronecker tensor product;
#X connect 1 0 4 0;
#X connect 1 0 12 0;
#X connect 2 0 6 0;
#X connect 4 0 9 0;
#X connect 4 1 8 0;
#X connect 7 0 12 3;
#X connect 10 0 12 1;
#X connect 11 0 12 2;
#X connect 12 0 13 0;
#X connect 13 0 0 0;
#X connect 13 1 15 0;
#X connect 14 0 13 1;
