#N canvas 1017 510 336 306 16;
#X obj 17 7 inlet;
#X obj 114 217 outlet;
#X text 15 257 Juan Ignacio Mendoza G. - 2022;
#X obj 237 7 inlet;
#X obj 17 47 route bang;
#X obj 237 87 l2s;
#X obj 180 127 symbol;
#X obj 180 167 s2l;
#X obj 114 167 list;
#X connect 0 0 4 0;
#X connect 3 0 5 0;
#X connect 4 0 6 0;
#X connect 4 1 5 0;
#X connect 4 1 8 0;
#X connect 5 0 6 1;
#X connect 6 0 7 0;
#X connect 7 0 1 0;
#X connect 8 0 1 0;
