#N canvas 960 407 380 484 16;
#X obj 30 49 inlet;
#X obj 110 229 list-drip;
#X obj 120 329 list prepend;
#X obj 167 289 t l;
#X obj 30 369 list;
#X obj 30 409 outlet;
#X obj 100 49 inlet;
#N canvas 685 251 212 285 autoscale 0;
#X obj 7 7 inlet;
#X obj 7 157 autoscale;
#X obj 7 247 outlet;
#X obj 36 67 r \$0-min;
#X obj 65 97 r \$0-max;
#X obj 94 127 r \$0-reset;
#X obj 26 37 r \$0-msg;
#X obj 50 217 s \$0-min_t;
#X obj 94 187 s \$0-max_t;
#X connect 0 0 1 0;
#X connect 1 0 2 0;
#X connect 1 1 7 0;
#X connect 1 2 8 0;
#X connect 3 0 1 1;
#X connect 4 0 1 2;
#X connect 5 0 1 3;
#X connect 6 0 1 0;
#X restore 110 259 pd autoscale;
#X obj 170 49 inlet;
#X obj 240 49 inlet;
#X obj 100 159 s \$0-min;
#X obj 170 129 s \$0-max;
#X obj 30 189 trigger bang any bang;
#N canvas 0 22 214 235 init 0;
#X obj 17 49 \$1;
#X obj 17 9 loadbang;
#X obj 77 49 \$2;
#X obj 77 79 select 0;
#X obj 77 109 1;
#X obj 17 190 s \$0-min;
#X obj 77 159 s \$0-max;
#X connect 0 0 5 0;
#X connect 1 0 0 0;
#X connect 1 0 2 0;
#X connect 2 0 3 0;
#X connect 3 0 4 0;
#X connect 3 1 6 0;
#X connect 4 0 6 0;
#X restore 270 189 pd init;
#X text 32 -5 defaults:;
#X text 121 22 0;
#X text 190 22 1;
#X text 24 445 Juan Ignacio Mendoza Garay - 2022;
#N canvas 423 601 423 249 info 0;
#X text 15 15 INLET 1: list stream;
#X text 15 45 INLET 2: minimum after rescale;
#X text 15 75 INLET 3: maximum after rescale;
#X text 15 105 INLET 4:;
#X text 25 125 bang = reset tracking;
#X text 25 185 load = set minimum and maximum (msg.);
#X text 25 145 save = dump minimum and maximum;
#X text 95 165 to outlets 2 and 3;
#X text 95 205 e.g. \, "load 0 100";
#X restore 270 229 pd info;
#N canvas 460 460 230 182 set 0;
#X obj 15 19 inlet;
#X obj 15 129 s \$0-reset;
#X obj 15 59 route bang;
#X obj 112 99 s \$0-msg;
#X connect 0 0 2 0;
#X connect 2 0 1 0;
#X connect 2 1 3 0;
#X restore 240 89 pd set;
#X obj 120 369 r \$0-min_t;
#X obj 240 369 r \$0-max_t;
#X obj 120 409 outlet;
#X obj 240 409 outlet;
#X connect 0 0 12 0;
#X connect 1 0 7 0;
#X connect 2 0 3 0;
#X connect 2 0 4 1;
#X connect 3 0 2 1;
#X connect 4 0 5 0;
#X connect 6 0 10 0;
#X connect 7 0 2 0;
#X connect 8 0 11 0;
#X connect 9 0 19 0;
#X connect 12 0 4 0;
#X connect 12 1 1 0;
#X connect 12 2 2 1;
#X connect 20 0 22 0;
#X connect 21 0 23 0;
#X coords 0 0 1 1 48 46 0;
