#N canvas 745 239 556 578 12;
#X declare -lib iemmatrix;
#X obj 160 123 import iemmatrix;
#X obj -165 503 mtx;
#X msg 125 413 zeros \$1 \$2;
#X msg 31 443 row \$1;
#X obj 125 443 mtx;
#X obj -165 353 cyclone/prepend;
#X msg -63 323 row \$1;
#X obj -165 233 t a b;
#X obj 35 263 select;
#X obj -31 263 cup;
#X obj 35 293 delay;
#X msg -31 203 1;
#X msg -8 413 1;
#X obj -31 293 t a a a;
#X obj -8 383 select;
#X obj 71 353 + 1;
#X obj -8 353 + 1;
#N canvas 81 126 436 125 information 0;
#X text -11 14 Circular buffer for delaying a stream of lists.;
#X text -11 34 An input list will be output after an amount of input
lists given by the 'lag' parameter.;
#X text -11 74 Paremeters on inlets 2 and 3 can be replaced by arguments
1 and 2 respectively.;
#X restore 160 163 pd information;
#X obj 72 93 select 0;
#X msg -260 165 1;
#X msg -203 165 2;
#X obj -260 203 cyclone/gate 2;
#X obj -165 13 inlet list;
#X obj 72 13 inlet lag;
#X obj 153 13 inlet list length;
#X obj -260 543 outlet;
#X obj -43 23 loadbang;
#X obj 125 203 + 1;
#X obj 125 383 pack 1 \$2;
#X obj -43 53 \$1;
#X text -49 543 Juan Ignacio Mendoza - 2022;
#X obj 153 333 t b a;
#X connect 1 0 25 0;
#X connect 2 0 4 0;
#X connect 3 0 1 0;
#X connect 4 0 1 1;
#X connect 5 0 1 0;
#X connect 6 0 5 1;
#X connect 7 0 5 0;
#X connect 7 1 9 0;
#X connect 8 0 10 0;
#X connect 9 0 13 0;
#X connect 10 0 11 0;
#X connect 11 0 9 0;
#X connect 12 0 3 0;
#X connect 13 0 6 0;
#X connect 13 1 16 0;
#X connect 13 2 8 0;
#X connect 14 0 12 0;
#X connect 14 1 3 0;
#X connect 15 0 14 1;
#X connect 16 0 14 0;
#X connect 18 0 19 0;
#X connect 18 1 20 0;
#X connect 18 1 11 0;
#X connect 18 1 27 0;
#X connect 19 0 21 0;
#X connect 20 0 21 0;
#X connect 21 0 25 0;
#X connect 21 1 7 0;
#X connect 22 0 21 1;
#X connect 23 0 18 0;
#X connect 24 0 31 0;
#X connect 26 0 19 0;
#X connect 26 0 29 0;
#X connect 27 0 15 0;
#X connect 27 0 8 1;
#X connect 27 0 28 0;
#X connect 28 0 2 0;
#X connect 29 0 18 0;
#X connect 31 0 28 0;
#X connect 31 1 28 1;
