#N canvas 757 140 468 639 12;
#X obj -78 20 inlet;
#X obj -77 597 outlet min;
#X obj 28 597 outlet argmin;
#X text 141 597 Juan Ignacio Mendoza - 2022;
#X obj -7 90 list-drip;
#X obj -78 430 f;
#X obj 37 300 f;
#X obj 3 300 min;
#X obj 319 260 cup;
#X obj 3 330 t a a;
#X msg 319 120 1;
#N canvas 0 22 450 300 once 0;
#X obj 110 75 inlet;
#X obj 105 187 spigot 1;
#X obj 110 104 t b f;
#X msg 125 151 0;
#X msg 165 99 1;
#X obj 165 63 inlet;
#X obj 102 219 outlet;
#X connect 0 0 2 0;
#X connect 1 0 6 0;
#X connect 2 0 3 0;
#X connect 2 1 1 0;
#X connect 3 0 1 1;
#X connect 4 0 1 1;
#X connect 5 0 4 0;
#X restore 83 260 pd once;
#X obj 248 400 ==;
#X obj 301 472 f;
#X obj 248 430 select 1;
#X obj 116 551 f;
#X obj -78 50 trigger bang bang any bang bang;
#X obj -7 450 !=;
#X obj -25 480 f;
#X obj -25 510 select 1;
#X obj -7 120 t a a a b;
#X text 43 20 argmin = 0 when all elements are the same;
#X connect 0 0 16 0;
#X connect 4 0 20 0;
#X connect 5 0 1 0;
#X connect 6 0 7 1;
#X connect 7 0 6 0;
#X connect 7 0 9 0;
#X connect 8 0 13 1;
#X connect 9 0 5 1;
#X connect 9 1 12 0;
#X connect 10 0 8 0;
#X connect 11 0 7 1;
#X connect 11 0 17 1;
#X connect 12 0 14 0;
#X connect 13 0 15 1;
#X connect 14 0 13 0;
#X connect 15 0 2 0;
#X connect 16 0 5 0;
#X connect 16 1 18 0;
#X connect 16 2 4 0;
#X connect 16 3 11 1;
#X connect 16 4 10 0;
#X connect 17 0 18 1;
#X connect 18 0 19 0;
#X connect 19 0 15 0;
#X connect 19 1 2 0;
#X connect 20 0 7 0;
#X connect 20 0 17 0;
#X connect 20 1 11 0;
#X connect 20 2 12 1;
#X connect 20 3 8 0;
#X coords 0 0 1 1 48 46 0;
