#N canvas 0 22 480 337 16;
#X declare -lib iemmatrix;
#X declare -lib smlib;
#X obj 20 57 inlet lower;
#X obj 150 57 inlet upper;
#X obj 112 147 linspace;
#X obj 290 57 inlet size;
#X obj 112 247 outlet grid x;
#X obj 270 247 outlet grid y;
#N canvas 730 239 355 318 grid_x 0;
#X obj -163 159 mtx;
#X obj -85 117 mtx;
#X msg -85 79 ones 1 \$1;
#X obj -163 199 mtx_repmat;
#X msg 24 79 \$1 1;
#X obj -163 9 inlet vector;
#X obj -163 239 outlet grid x;
#X obj -23 9 inlet size;
#X obj -23 39 t f f;
#X text -156 274 Juan Ignacio Mendoza Garay - 2016;
#X connect 0 0 3 0;
#X connect 1 0 0 1;
#X connect 2 0 1 0;
#X connect 3 0 6 0;
#X connect 4 0 3 1;
#X connect 5 0 0 0;
#X connect 7 0 8 0;
#X connect 8 0 2 0;
#X connect 8 1 4 0;
#X restore 112 207 pd grid_x;
#X obj 290 87 t f f f;
#X text 85 288 Juan Ignacio Mendoza Garay - 2016;
#N canvas 730 239 355 318 grid_y 0;
#X obj -163 159 mtx;
#X obj -85 117 mtx;
#X obj -163 199 mtx_repmat;
#X obj -163 9 inlet vector;
#X obj -163 239 outlet grid x;
#X obj -23 9 inlet size;
#X obj -23 39 t f f;
#X text -156 274 Juan Ignacio Mendoza Garay - 2016;
#X msg -85 79 ones \$1 1;
#X msg 24 79 1 \$1;
#X connect 0 0 2 0;
#X connect 1 0 0 1;
#X connect 2 0 4 0;
#X connect 3 0 0 0;
#X connect 5 0 6 0;
#X connect 6 0 8 0;
#X connect 6 1 9 0;
#X connect 8 0 1 0;
#X connect 9 0 2 1;
#X restore 270 207 pd grid_y;
#X obj 290 -5 import iemmatrix;
#X obj 290 25 import smlib;
#X connect 0 0 2 0;
#X connect 1 0 2 1;
#X connect 2 0 6 0;
#X connect 2 0 9 0;
#X connect 3 0 7 0;
#X connect 6 0 4 0;
#X connect 7 0 2 2;
#X connect 7 1 6 1;
#X connect 7 2 9 1;
#X connect 9 0 5 0;
