#N canvas 593 500 353 266 10;
#X obj 9 234 outlet;
#X obj 105 63 mtx_zeros;
#X obj -18 133 mtx;
#X obj -18 163 t a a;
#X obj 72 204 mtx_scroll 1;
#X obj -45 64 cyclone/prepend row 1;
#X obj -45 95 t a b;
#X text 80 134 the new incoming vector.;
#X text -38 25 list of N dimensions;
#X obj -45 4 inlet ND;
#X text 88 234 Juan I. Mendoza G. - 2022;
#X text 112 39 and N (number of dimensions);
#X text 112 25 list of n (window length);
#X text 1 94 <----------- Return previous n \,;
#X text 79 114 then incorporate;
#X obj 105 4 inlet n N;
#X connect 1 0 2 1;
#X connect 2 0 3 0;
#X connect 3 0 4 0;
#X connect 3 1 0 0;
#X connect 4 0 2 1;
#X connect 5 0 6 0;
#X connect 6 0 2 0;
#X connect 6 1 2 0;
#X connect 9 0 5 0;
#X connect 15 0 1 0;
