#N canvas 279 22 469 688 12;
#X declare -lib iemmatrix;
#X obj 10 16 inlet;
#X obj 10 656 outlet;
#X obj 56 486 mtx_slice;
#X obj 38 456 mtx;
#X obj 67 86 mtx_size;
#X obj 83 246 cup;
#X obj 83 346 pack f f;
#X obj 83 416 t b a;
#X obj 83 316 + 1;
#X obj 83 286 t a a;
#X msg 152 206 1;
#X obj 83 206 until;
#X obj 120 176 t a b;
#X obj 56 516 list split 3;
#X msg 198 206 list;
#X msg 83 381 \$1 \$2 end \$2;
#X obj 120 146 - 1;
#X obj 157 536 list;
#X obj 96 576 cyclone/prepend;
#X obj 10 596 list;
#X obj 10 626 cyclone/prepend;
#X msg 255 577 matrix \$1 1;
#X obj 255 207 expr ( $f1 * ($f1 - 1) ) / 2;
#X obj 10 46 t b a a;
#X obj 339 37 import iemmatrix;
#X text 154 656 Juan Ignacio Mendoza - 2019;
#X text 259 184 size of tril vector:;
#N canvas 926 22 441 201 information 0;
#X text 16 12 INLET:;
#X text 16 62 OUTLET:;
#X text 16 32 A square matrix of size N.;
#X text 16 82 A column vector containing the lower triangle \, excluding
;
#X text 16 102 the main diagonal. The elements in the vector correspond
;
#X text 16 122 to the matrix's indexes as follows:;
#X text 16 162 (N \, N-1).;
#X text 16 142 (2 \, 1) \, (3 \, 1) \, ... \, (N \, 1) \, (3 \, 2)
\, ... \, (N \, 2) \, ... \,;
#X restore 353 77 pd information;
#X obj 120 116 t a b a;
#X connect 0 0 23 0;
#X connect 2 0 13 0;
#X connect 3 0 2 0;
#X connect 4 1 28 0;
#X connect 5 0 9 0;
#X connect 6 0 15 0;
#X connect 7 0 3 0;
#X connect 7 1 2 1;
#X connect 8 0 6 0;
#X connect 9 0 8 0;
#X connect 9 1 6 1;
#X connect 10 0 5 0;
#X connect 11 0 5 0;
#X connect 12 0 11 0;
#X connect 12 1 10 0;
#X connect 13 1 18 0;
#X connect 14 0 18 1;
#X connect 15 0 7 0;
#X connect 16 0 12 0;
#X connect 17 0 18 1;
#X connect 18 0 17 0;
#X connect 18 0 19 1;
#X connect 19 0 20 0;
#X connect 20 0 1 0;
#X connect 21 0 20 1;
#X connect 22 0 21 0;
#X connect 23 0 19 0;
#X connect 23 1 4 0;
#X connect 23 2 3 1;
#X connect 28 0 16 0;
#X connect 28 1 14 0;
#X connect 28 2 22 0;
#X coords 0 0 1 1 200 30 0;
