#N canvas 513 22 666 685 12;
#X declare -lib iemmatrix;
#X text 85 558 Juan Ignacio Mendoza - 2019;
#X obj 390 288 until;
#X obj 390 138 i;
#X obj 71 67 cup;
#X obj 390 348 cup;
#X obj 370 378 select;
#X obj 390 -83 inlet record/spit;
#X obj 39 -3 spigot;
#X obj 492 558 outlet size;
#X obj 103 187 cup;
#X obj 103 217 + 1;
#X obj 71 107 t a a;
#X obj 256 -83 inlet list length;
#X msg 71 247 row \$1;
#X msg 203 187 zeros \$1 \$2;
#X obj 122 -83 inlet buffer size;
#X msg 409 408 row \$1;
#X obj 158 217 *;
#X obj 39 -83 inlet list;
#X msg 94 37 1;
#X msg 519 258 1;
#X obj 390 228 + 1;
#N canvas 0 22 524 553 information 0;
#X text -7 77 INLET 2: Starting buffer size. Optional. Default = 100
;
#X text -7 47 INLET 1: A list that will be stored as a row in the array.
;
#X text 56 97 When the array reaches its set buffer size \, it will
;
#X text 56 117 be resized by adding a number of rows equal to the;
#X text 56 137 initial buffer size. However \, if the lists are;
#X text -7 207 INLET 3: Length of the lists input to inlet 1 Optional.
;
#X text -7 277 INLET 4: 1 = record a new array \, 0 = spit current
array;
#X text 55 297 The current array can be spit repeatedly.;
#X text -14 407 OUTLET 2: Bang right after the spit array has reached
its;
#X text 56 428 last row.;
#X text -14 497 Values for inlets 2 and 3 can be set as arguments 1
and 2 \,;
#X text -14 517 respectively.;
#X text -14 457 OUTLET 3: Size of the spit array.;
#X text -14 7 Record lists \, then spit them.;
#X text 55 337 this order: outlet 3 \, outlet 1 and finally outlet
2;
#X text 55 317 When inlet 4 receives a 0 \, values will be output in
;
#X text 56 177 rows \, shown as zeros.;
#X text 56 157 arriving too fast the resizing might produce dropped
;
#X text 56 247 of columns in the array.;
#X text 56 227 Default = 3 This number is equivalent to the number
;
#X text -14 377 OUTLET 1: Lists corresponding to rows of the spit array.
;
#X restore 228 498 pd information;
#X obj 220 438 import iemmatrix;
#X obj -56 558 outlet;
#N canvas 0 22 214 230 init 0;
#X obj -27 37 loadbang;
#X obj -37 127 select 0;
#X msg -37 157 100;
#X obj 47 97 pack \$2;
#X obj -27 97 pack \$1;
#X obj 16 187 outlet;
#X obj 100 187 outlet;
#X obj -37 7 inlet;
#X obj 47 127 select 0;
#X msg 47 157 3;
#X obj -27 67 trigger b b;
#X connect 0 0 10 0;
#X connect 1 0 2 0;
#X connect 1 1 5 0;
#X connect 2 0 5 0;
#X connect 3 0 8 0;
#X connect 4 0 1 0;
#X connect 7 0 1 0;
#X connect 8 0 9 0;
#X connect 8 1 6 0;
#X connect 9 0 6 0;
#X connect 10 0 4 0;
#X connect 10 1 3 0;
#X restore 193 67 pd init;
#X obj 390 258 trigger a a;
#X obj 390 198 trigger any any;
#X obj 39 37 t a b;
#X obj 370 558 outlet end;
#X text 436 -49 0 = spit as much;
#X text 464 -34 times as needed;
#X obj 79 498 mtx_check;
#X msg 181 378 matrix \$1;
#X obj 39 287 cyclone/prepend;
#X obj 79 468 cyclone/prepend;
#X obj -56 408 cyclone/gate 2;
#X obj -56 257 r \$0-outgate;
#X msg 204 317 2;
#X obj 204 347 s \$0-outgate;
#X obj 409 438 s \$0-m1;
#X obj 49 317 r \$0-m1;
#X obj -33 287 r \$0-m2;
#X obj 203 247 s \$0-m2;
#X obj 79 528 s \$0-m2;
#X obj 158 287 t b a b;
#X obj 203 137 pack f f;
#X text 436 -63 1 = record new;
#X msg -33 378 1;
#X obj 39 378 matrix;
#X obj 203 217 matrix;
#X obj -33 317 t b a;
#X msg 152 137 1;
#X obj 39 438 list split 2;
#X obj 103 137 sel;
#X obj 390 -53 t a a;
#X obj 422 -14 sel 1 0;
#X obj 445 86 trigger b b;
#X connect 1 0 4 0;
#X connect 2 0 27 0;
#X connect 3 0 2 1;
#X connect 3 0 11 0;
#X connect 4 0 5 0;
#X connect 5 0 29 0;
#X connect 5 1 16 0;
#X connect 6 0 55 0;
#X connect 7 0 28 0;
#X connect 9 0 10 0;
#X connect 10 0 17 0;
#X connect 11 0 13 0;
#X connect 11 1 54 0;
#X connect 12 0 46 1;
#X connect 13 0 34 1;
#X connect 14 0 50 0;
#X connect 15 0 25 0;
#X connect 16 0 40 0;
#X connect 17 0 45 0;
#X connect 17 0 54 1;
#X connect 18 0 7 0;
#X connect 19 0 3 0;
#X connect 20 0 4 0;
#X connect 21 0 26 0;
#X connect 25 0 17 1;
#X connect 25 0 46 0;
#X connect 25 0 52 0;
#X connect 25 0 54 1;
#X connect 25 1 46 1;
#X connect 26 0 1 0;
#X connect 26 1 5 1;
#X connect 27 0 21 0;
#X connect 27 1 8 0;
#X connect 28 0 34 0;
#X connect 28 1 3 0;
#X connect 32 0 44 0;
#X connect 33 0 35 1;
#X connect 34 0 49 0;
#X connect 35 0 32 0;
#X connect 36 0 24 0;
#X connect 36 1 53 0;
#X connect 37 0 36 0;
#X connect 38 0 39 0;
#X connect 41 0 49 0;
#X connect 42 0 51 0;
#X connect 45 0 49 0;
#X connect 45 1 33 0;
#X connect 45 2 38 0;
#X connect 46 0 14 0;
#X connect 48 0 36 0;
#X connect 49 0 36 1;
#X connect 50 0 43 0;
#X connect 51 0 48 0;
#X connect 51 1 49 1;
#X connect 52 0 9 0;
#X connect 53 1 35 0;
#X connect 54 0 9 0;
#X connect 55 0 7 1;
#X connect 55 1 56 0;
#X connect 56 0 19 0;
#X connect 56 1 57 0;
#X connect 57 0 2 0;
#X connect 57 1 20 0;
#X coords 0 0 1 1 200 30 0;
