#N canvas 96 541 642 156 12;
#X obj 18 10 inlet start/stop playback;
#X obj 393 10 inlet loop switch;
#X obj 208 10 inlet start duration (s);
#N canvas 436 388 244 256 load_file 0;
#X obj 11 170 soundfiler;
#X obj 11 110 pack \$0 s;
#X obj 39 40 symbol;
#X obj 39 80 t b a;
#X obj 11 210 s \$0-size;
#X msg 11 140 read -resize \$2 \$1-ch1;
#X obj 39 10 inlet filename;
#X connect 0 0 4 0;
#X connect 1 0 5 0;
#X connect 2 0 3 0;
#X connect 3 0 1 0;
#X connect 3 1 1 1;
#X connect 5 0 0 0;
#X connect 6 0 2 0;
#X restore 530 40 pd load_file;
#N canvas 1336 538 358 503 play_control 1;
#X msg 12 76 stop;
#X obj 188 196 pack f f;
#X obj 12 46 select 0 1;
#X msg 97 76 2;
#X obj 120 166 f;
#X obj 12 16 r \$0-play_tgl;
#X obj 138 16 r \$0-startime;
#X obj 241 16 r \$0-duration;
#X obj 12 466 outlet~;
#X obj 12 260 tabplay~ \$0-ch1;
#X obj 114 436 s \$0-play_tgl;
#X obj 19 290 r \$0-loop_tgl;
#X msg 114 406 1;
#X obj 19 406 s \$0-playend;
#X obj 19 320 + 1;
#X obj 25 136 cyclone/gate 2;
#X obj 19 366 cyclone/gate 2;
#N canvas 808 389 943 302 (subpatch) 0;
#X array \$0-ch1 3.96902e+06 float 0;
#X coords 0 0 3.96902e+06 1 188 20 0;
#X restore 136 260 graph;
#X obj 136 290 loadbang;
#X msg 136 320 1;
#X connect 0 0 9 0;
#X connect 1 0 9 0;
#X connect 2 0 0 0;
#X connect 2 1 15 1;
#X connect 3 0 15 0;
#X connect 4 0 1 0;
#X connect 5 0 2 0;
#X connect 6 0 4 1;
#X connect 6 0 3 0;
#X connect 7 0 1 1;
#X connect 9 0 8 0;
#X connect 9 1 16 1;
#X connect 11 0 14 0;
#X connect 12 0 10 0;
#X connect 14 0 16 0;
#X connect 15 0 9 0;
#X connect 15 1 4 0;
#X connect 16 0 13 0;
#X connect 16 1 12 0;
#X connect 18 0 19 0;
#X connect 19 0 16 0;
#X restore 18 80 pd play_control;
#X obj 18 120 outlet~;
#N canvas 1158 63 340 339 segment_control 0;
#X obj 17 80 unpack f f;
#X obj 70 300 s \$0-startime;
#X obj 220 300 s \$0-duration;
#X obj 17 10 inlet start duration (s);
#X obj 185 80 samplerate~;
#X obj 17 40 t a b;
#X obj 17 160 *;
#X obj 167 160 *;
#X obj 17 190 select 0;
#X obj 17 260 1;
#X obj 167 190 select 0;
#X obj 89 190 r \$0-size;
#X obj 167 260 f;
#X obj 89 220 t b a;
#X connect 0 0 6 0;
#X connect 0 1 7 0;
#X connect 3 0 5 0;
#X connect 4 0 7 1;
#X connect 4 0 6 1;
#X connect 5 0 0 0;
#X connect 5 1 4 0;
#X connect 6 0 8 0;
#X connect 7 0 10 0;
#X connect 8 0 9 0;
#X connect 8 1 1 0;
#X connect 9 0 1 0;
#X connect 10 0 12 0;
#X connect 10 1 2 0;
#X connect 11 0 13 0;
#X connect 12 0 2 0;
#X connect 13 0 9 0;
#X connect 13 1 12 0;
#X restore 208 40 pd segment_control;
#X obj 147 120 outlet size/end;
#N canvas 0 23 156 232 size/end 0;
#X obj 27 50 r \$0-size;
#X obj 7 180 outlet size/end;
#X obj 7 10 r \$0-playend;
#X obj 58 110 samplerate~;
#X obj 27 140 /;
#X obj 27 80 t a b;
#X connect 0 0 5 0;
#X connect 2 0 1 0;
#X connect 3 0 4 1;
#X connect 4 0 1 0;
#X connect 5 0 4 0;
#X connect 5 1 3 0;
#X restore 147 80 pd size/end;
#X text 347 120 Juan Ignacio Mendoza - 2022;
#X obj 18 40 s \$0-play_tgl;
#X obj 393 40 s \$0-loop_tgl;
#X obj 530 10 inlet filename;
#X connect 0 0 10 0;
#X connect 1 0 11 0;
#X connect 2 0 6 0;
#X connect 4 0 5 0;
#X connect 8 0 7 0;
#X connect 12 0 3 0;
