#N canvas 193 392 786 631 12;
#X obj 150 16 inlet mode;
#X obj 150 46 route full segment;
#X obj 526 16 inlet clear markers;
#X obj 150 256 cyclone/gate 2;
#X msg 150 76 2;
#X msg 211 76 1;
#N canvas 314 139 409 690 information 0;
#X text 32 66 0 = stop;
#X text 42 106 1 = play full;
#X text 42 166 number of segment to play;
#X text 12 46 INLET 1:;
#X text 12 196 INLET 2:;
#X text 32 86 if full mode:;
#X text 32 146 else \, if segment mode:;
#X text 42 126 mark = add marker while playing;
#X text 31 236 segment = play segment;
#X text 31 406 bang = clear markers;
#X text 12 456 OUTLET 1:;
#X text 12 506 OUTLET 2:;
#X text 12 556 OUTLET 3:;
#X text 12 606 OUTLET 4:;
#X text 31 526 elapsed time;
#X text 31 576 1 = start playback \, 0 = stop;
#X text 31 626 list = start time \, duration time;
#X text 12 266 INLET 3:;
#X text 12 316 INLET 4:;
#X text 12 386 INLET 5:;
#X text 12 6 Control playback of another object \, either the full
duration or segments indicated by markers.;
#X text 31 216 full = play full recording;
#X text 31 286 bang = the recording has reached its end;
#X text 32 476 marker time;
#X text 31 336 list = time unit (ms) \, marker lag;
#X text 81 356 default = 10 0;
#X restore 561 106 pd information;
#X obj -60 186 spigot;
#X obj -21 157 - 1;
#X obj 470 576 outlet start/duration times;
#X msg 270 456 1;
#X msg 150 456 0;
#X obj 150 396 select 0;
#X msg 470 506 0 0;
#X msg 520 506 0;
#X msg 310 76 0;
#X obj 270 576 outlet start/stop playback;
#X obj 270 396 select 1;
#X obj -60 46 route mark;
#X obj -60 496 timetable;
#X msg 0 456 clear;
#X msg 81 456 sort;
#X obj -60 16 inlet play/stop/mark;
#X obj -60 306 stopwatch;
#X obj -80 576 outlet marker time;
#X obj 60 576 outlet elapsed time;
#X obj 310 16 inlet end;
#X obj 406 106 s \$0-T;
#X obj -20 246 r \$0-T;
#X obj 526 46 s \$0-clear;
#X obj 160 426 r \$0-clear;
#X obj 0 426 r \$0-clear;
#X obj 150 136 s \$0-full;
#X obj 211 106 s \$0-segm;
#X obj 150 196 r \$0-full;
#X obj 170 226 r \$0-segm;
#X obj 470 456 r \$0-full;
#X obj 81 426 r \$0-segm;
#X obj -21 107 r \$0-full;
#X obj 69 107 r \$0-segm;
#X obj -30 396 r \$0-segm_num;
#X obj 150 316 s \$0-segm_num;
#X obj 520 536 s \$0-startime;
#X obj 0 276 r \$0-startime;
#X obj 0 336 s \$0-elatime;
#X obj 60 486 r \$0-elatime;
#X obj -60 526 s \$0-startdur;
#X msg 400 286 1;
#X msg 400 226 \$1;
#X obj 474 286 s \$0-startime;
#X obj 400 196 r \$0-startdur;
#X obj 330 456 r \$0-startdur;
#X obj 400 256 trigger b a;
#X obj 7 77 s \$0-playstop;
#X obj 245 196 r \$0-playstop;
#X obj 150 367 r \$0-playstop;
#X obj -40 216 r \$0-sw_tgl;
#X obj 400 316 s \$0-sw_tgl;
#X obj 270 366 r \$0-sw_tgl;
#X obj 255 316 s \$0-sw_tgl;
#X obj 310 106 s \$0-sw_tgl;
#X obj 150 546 s \$0-sw_tgl;
#X obj 255 286 moses 2;
#X msg 70 546 0;
#X obj 70 516 r \$0-clear;
#X obj 406 16 inlet T mlag;
#X obj 406 56 unpack f f;
#X obj 473 106 s \$0-mlag;
#X obj -42 366 r \$0-mlag;
#X obj -60 396 - 0;
#X text 196 606 Juan Ignacio Mendoza - 2020;
#X connect 0 0 1 0;
#X connect 1 0 4 0;
#X connect 1 1 5 0;
#X connect 2 0 29 0;
#X connect 3 0 41 0;
#X connect 3 1 62 0;
#X connect 4 0 32 0;
#X connect 5 0 33 0;
#X connect 7 0 23 0;
#X connect 8 0 7 1;
#X connect 10 0 16 0;
#X connect 11 0 16 0;
#X connect 11 0 61 0;
#X connect 12 0 11 0;
#X connect 13 0 9 0;
#X connect 14 0 42 0;
#X connect 15 0 60 0;
#X connect 17 0 10 0;
#X connect 18 0 7 0;
#X connect 18 1 53 0;
#X connect 19 0 46 0;
#X connect 20 0 19 2;
#X connect 21 0 19 2;
#X connect 22 0 18 0;
#X connect 23 0 69 0;
#X connect 23 1 44 0;
#X connect 26 0 15 0;
#X connect 28 0 23 2;
#X connect 30 0 11 0;
#X connect 31 0 20 0;
#X connect 34 0 3 0;
#X connect 35 0 3 0;
#X connect 36 0 13 0;
#X connect 36 0 14 0;
#X connect 37 0 21 0;
#X connect 38 0 8 0;
#X connect 39 0 8 0;
#X connect 40 0 19 1;
#X connect 43 0 23 3;
#X connect 45 0 25 0;
#X connect 47 0 57 0;
#X connect 48 0 52 0;
#X connect 50 0 48 0;
#X connect 51 0 9 0;
#X connect 52 0 47 0;
#X connect 52 1 49 0;
#X connect 54 0 3 1;
#X connect 55 0 12 0;
#X connect 56 0 23 1;
#X connect 58 0 17 0;
#X connect 62 0 59 0;
#X connect 63 0 25 0;
#X connect 64 0 63 0;
#X connect 65 0 66 0;
#X connect 66 0 27 0;
#X connect 66 1 67 0;
#X connect 68 0 69 1;
#X connect 69 0 24 0;
#X connect 69 0 19 0;
