#N canvas 157 630 517 277 12;
#X obj 51 -60 inlet xyz;
#X text 168 181 Juan Ignacio Mendoza Garay - 2022;
#N canvas 1286 461 264 379 set_arrays 1;
#X obj 84 149 s \$0-y;
#N canvas 216 133 570 236 mask 0;
#X text 271 15 Every time the table properties change;
#X text 271 30 the table is re-written and it goes to;
#X text 271 45 the front exposing its title \, which is;
#X text 271 60 aesthetically undesirable.;
#X text 271 106 properties change.;
#X text 271 76 To avoid this a canvas is;
#X text 271 91 renewed every time the table;
#X obj 12 180 s pd-\$0-cnvmask;
#X obj 12 14 inlet;
#X obj 72 44 r \$0-lbl;
#X obj 12 44 del 10;
#X text 174 178 label position background font;
#X msg 12 134 clear \, obj 1 0 cnv 15 198 18 empty empty \$1 \$2 8
0 14 \$3 \$4 0;
#X obj 152 44 r \$0-lbl_init;
#X text 177 197 default: empty 0 0 -1;
#X obj 12 104 list-store;
#X connect 8 0 10 0;
#X connect 9 0 15 0;
#X connect 10 0 15 0;
#X connect 12 0 7 0;
#X connect 13 0 15 1;
#X connect 15 0 12 0;
#X restore 44 209 pd mask;
#X msg -87 34 const 0;
#X obj -87 4 delay 100;
#X obj -87 -46 t b b;
#X obj -2 -86 moses 2;
#X obj 44 79 t b a a a;
#X msg 44 34 resize \$1;
#X obj -2 -116 r \$0-size;
#X obj -87 -116 r \$0-clear;
#X msg -2 -46 2;
#X obj 104 119 s \$0-x;
#X obj 64 179 s \$0-z;
#X obj 44 4 i;
#X connect 2 0 6 0;
#X connect 3 0 2 0;
#X connect 4 0 3 0;
#X connect 4 1 13 0;
#X connect 5 0 10 0;
#X connect 5 1 13 0;
#X connect 6 0 1 0;
#X connect 6 1 12 0;
#X connect 6 2 0 0;
#X connect 6 3 11 0;
#X connect 7 0 6 0;
#X connect 8 0 5 0;
#X connect 9 0 4 0;
#X connect 10 0 13 0;
#X connect 13 0 7 0;
#X restore 181 117 pd set_arrays;
#N canvas 0 22 450 300 (subpatch) 0;
#X array \$0-z 200 float 0;
#X coords 0 1 199 -2 200 90 1;
#X restore 290 35 graph;
#N canvas 0 22 450 300 (subpatch) 0;
#X array \$0-y 200 float 0;
#X coords 0 2 199 -1 200 90 1;
#X restore 290 35 graph;
#N canvas 0 22 450 300 (subpatch) 0;
#X array \$0-x 200 float 0;
#X coords 0 3 199 0 200 90 1;
#X restore 290 35 graph;
#N canvas 0 22 450 300 \$0-cnvmask 0;
#X obj 1 0 cnv 15 198 18 empty empty input 80 8 0 14 -228992 -66577
0;
#X coords 0 -1 1 1 200 18 1 0 0;
#X restore 290 14 pd \$0-cnvmask;
#X obj 409 -60 inlet label;
#X obj 409 -30 s \$0-lbl;
#X obj 146 -60 inlet autoscale/reset;
#X obj 309 -60 inlet resize;
#X obj 12 50 gate_2;
#X obj 51 80 list-autoscale;
#X obj 146 -30 route bang;
#X obj 213 0 + 1;
#N canvas 828 630 281 276 information 0;
#X text 25 107 bang: reset;
#X text 25 87 1 \, 0: autoscale on \, off;
#X text 15 67 INLET 2:;
#X text 25 27 3-number list;
#X text 15 7 INLET 1:;
#X text 15 148 INLET 3:;
#X text 25 168 resize plots (default = 200);
#X text 15 208 INLET 4:;
#X text 25 228 list label position;
#X restore 341 150 pd information;
#N canvas 910 258 655 772 write_arrays 0;
#X obj -105 144 until;
#X obj 70 224 + 1;
#X obj 70 284 - 1;
#X obj -148 734 outlet thru;
#X obj -148 14 inlet spit_xyz;
#X msg 30 114 0;
#X obj -57 54 r \$0-size;
#X obj -128 597 unpack f f f;
#X obj -128 54 t a b b;
#X obj 101 597 r \$0-size;
#X obj -47 697 tabwrite \$0-x;
#X obj -47 667 tabwrite \$0-y;
#X obj -47 637 tabwrite \$0-z;
#X obj 115 554 tabwrite \$0-x;
#X obj 5 554 tabwrite \$0-y;
#X obj -105 554 tabwrite \$0-z;
#X obj -105 524 f;
#X obj 5 524 f;
#X obj 115 524 f;
#X obj 375 313 tabread \$0-x;
#X obj 275 313 tabread \$0-y;
#X obj 175 314 tabread \$0-z;
#X obj 12 224 f;
#X obj -105 174 t b b b b;
#X obj 70 254 t a a;
#X obj 70 314 t a a a;
#X obj 252 283 t a a a;
#X obj -105 114 i;
#X connect 0 0 23 0;
#X connect 1 0 22 1;
#X connect 1 0 24 0;
#X connect 2 0 25 0;
#X connect 4 0 3 0;
#X connect 4 0 8 0;
#X connect 5 0 22 1;
#X connect 6 0 27 1;
#X connect 7 0 10 0;
#X connect 7 1 11 0;
#X connect 7 2 12 0;
#X connect 8 0 7 0;
#X connect 8 1 27 0;
#X connect 8 2 5 0;
#X connect 9 0 10 1;
#X connect 9 0 11 1;
#X connect 9 0 12 1;
#X connect 16 0 15 0;
#X connect 17 0 14 0;
#X connect 18 0 13 0;
#X connect 19 0 18 1;
#X connect 20 0 17 1;
#X connect 21 0 16 1;
#X connect 22 0 1 0;
#X connect 23 0 16 0;
#X connect 23 1 17 0;
#X connect 23 2 18 0;
#X connect 23 3 22 0;
#X connect 24 0 2 0;
#X connect 24 1 26 0;
#X connect 25 0 15 1;
#X connect 25 1 14 1;
#X connect 25 2 13 1;
#X connect 26 0 21 0;
#X connect 26 1 20 0;
#X connect 26 2 19 0;
#X connect 27 0 0 0;
#X restore 51 117 pd write_arrays;
#X obj 309 -30 s \$0-size;
#X obj 51 157 outlet thru(rescaled);
#X obj 164 40 s \$0-clear;
#N canvas 976 612 225 142 init 1;
#X obj -21 101 s \$0-size;
#X msg -21 71 200;
#X obj -21 11 loadbang;
#X obj -21 41 t b b;
#X obj 59 101 s \$0-lbl_init;
#X msg 59 71 empty 0 0 -1;
#X connect 1 0 0 0;
#X connect 2 0 3 0;
#X connect 3 0 1 0;
#X connect 3 1 5 0;
#X connect 5 0 4 0;
#X restore 181 77 pd init;
#X connect 0 0 11 1;
#X connect 7 0 8 0;
#X connect 9 0 13 0;
#X connect 10 0 17 0;
#X connect 11 0 16 0;
#X connect 11 1 12 0;
#X connect 12 0 16 0;
#X connect 13 0 12 3;
#X connect 13 0 19 0;
#X connect 13 1 14 0;
#X connect 14 0 11 0;
#X connect 16 0 18 0;
#X coords 0 -1 1 1 200 120 2 290 10;
