#N canvas 651 22 427 314 12;
#X text -27 279 Juan Ignacio Mendoza - 2019;
#X obj -231 19 inlet;
#X obj -105 279 outlet;
#X obj -195 159 compare-any;
#X obj -195 189 select 0;
#X obj -231 49 symbol;
#X obj -121 129 symbol;
#X obj -105 219 symbol;
#X obj -105 249 list trim;
#X text -141 24 Outputs the input only if the input changes.;
#X text -141 44 Input should be symbol (text message).;
#X obj -231 79 trigger any any bang any;
#X connect 1 0 5 0;
#X connect 3 0 4 0;
#X connect 4 0 7 0;
#X connect 5 0 11 0;
#X connect 6 0 3 1;
#X connect 7 0 8 0;
#X connect 8 0 2 0;
#X connect 11 0 6 1;
#X connect 11 1 3 0;
#X connect 11 2 6 0;
#X connect 11 3 7 1;
