#N canvas 0 22 515 330 16;
#X obj 232 114 t l;
#X obj 25 64 list append;
#X obj 25 154 list split;
#X obj 25 24 inlet signal;
#X obj 255 24 inlet size;
#X text 229 152 hop=1;
#X obj 25 254 outlet;
#X obj 25 224 mtx;
#X msg 358 114 zeros \$1 1;
#X obj 358 154 mtx;
#X text 349 216 window vector;
#X text 368 200 intialise;
#X text 406 183 |;
#X text 351 171 ____________;
#X text 347 171 |;
#X text 465 171 |;
#X text 351 81 ____________;
#X text 465 158 |;
#X text 347 158 |;
#X text 347 145 |;
#X text 347 132 |;
#X text 347 119 |;
#X text 347 106 |;
#X text 347 93 |;
#X text 465 93 |;
#X text 465 106 |;
#X text 465 119 |;
#X text 465 132 |;
#X text 465 145 |;
#X text 95 281 Juan Ignacio Mendoza Garay - 2016;
#X connect 0 0 1 1;
#X connect 1 0 2 0;
#X connect 2 0 0 0;
#X connect 2 0 7 0;
#X connect 2 2 0 0;
#X connect 3 0 1 0;
#X connect 4 0 2 1;
#X connect 4 0 8 0;
#X connect 7 0 6 0;
#X connect 8 0 9 0;
#X connect 9 0 7 1;
