#N canvas 664 172 493 270 12;
#X text 6 226 Juan Ignacio Mendoza - 2019;
#X obj 88 84 metro 10;
#X obj 11 4 inlet start/stop;
#X obj 198 194 outlet running_time;
#X obj -87 4 inlet record;
#X obj -87 194 outlet record;
#X obj -87 164 f;
#X obj -87 114 bang;
#X obj 198 144 cup;
#X obj 11 34 trigger a a;
#X obj 155 84 select 1;
#X obj 198 114 f;
#X obj 141 4 inlet T;
#X obj 216 4 inlet starting time;
#X connect 1 0 8 0;
#X connect 2 0 9 0;
#X connect 4 0 7 0;
#X connect 6 0 5 0;
#X connect 7 0 6 0;
#X connect 8 0 6 1;
#X connect 8 0 3 0;
#X connect 9 0 1 0;
#X connect 9 1 10 0;
#X connect 10 0 11 0;
#X connect 11 0 8 0;
#X connect 12 0 1 1;
#X connect 13 0 11 1;
