#N canvas 526 444 259 229 12;
#X text -118 67 Juan Ignacio Mendoza Garay - 2018;
#X obj -89 38 outlet period;
#X obj 21 38 outlet bpm;
#X obj 21 -112 inlet bang;
#X obj 21 -82 t b b;
#X obj 21 -52 realtime;
#X msg 21 -22 60000 \$1;
#X obj 21 8 /;
#X connect 3 0 4 0;
#X connect 4 0 5 0;
#X connect 4 1 5 1;
#X connect 5 0 1 0;
#X connect 5 0 6 0;
#X connect 6 0 7 0;
#X connect 7 0 2 0;
#X coords 0 0 1 1 48 46 0;
