#N canvas 664 172 504 635 12;
#X msg 216 84 20 2;
#X obj -49 385 mtx_resize;
#X obj 63 44 loadbang;
#X obj -27 114 cup;
#X obj -108 14 inlet new time;
#X msg 63 84 1;
#X obj 63 145 / 20;
#X obj 63 175 i;
#X obj 63 205 change;
#X obj 63 245 + 1;
#X obj 63 315 * 20;
#X obj -49 355 spigot;
#X msg 27 315 1;
#X msg -10 315 0;
#X obj 124 14 inlet fetch;
#X msg 170 286 row \$1;
#X obj -108 475 matrix;
#X obj -108 596 outlet;
#X obj -108 566 spigot;
#X msg 244 535 1;
#X msg -69 535 0;
#X obj 170 245 trigger a b;
#X msg 18 355 \$1 2;
#X obj -5 245 t b b;
#X obj 124 205 moses 1;
#X obj -108 84 t a b;
#X msg -108 205 element \$2 1 \$1;
#X obj -108 175 pack f f;
#N canvas 0 22 450 300 information 0;
#X text 19 81 INLET 2: A numerical value \, the row to fetch.;
#X text 19 111 INLET 3:;
#X text 19 11 INLET 1: A numerical value that will be placed;
#X text 79 51 a matrix.;
#X text 79 31 consecutively in the first column of;
#X text 130 161 then write their differences;
#X text 130 181 in column 2;
#X text 81 141 sort = Sort input values (column 1) \,;
#X text 19 221 OUTLET: A list \, composed of the row of the;
#X text 73 241 matrix corresponding to the number;
#X text 73 261 entered to inlet 2;
#X text 81 121 clear = clear matrix;
#X restore 256 204 pd information;
#X text 56 596 Juan Ignacio Mendoza - 2019;
#X obj -108 415 r \$0-m1;
#X obj -69 445 r \$0-m2;
#X obj 170 316 s \$0-m1;
#X obj -108 285 s \$0-m1;
#X obj -49 415 s \$0-m2;
#X obj -98 505 s \$0-mo;
#N canvas 0 23 280 310 sort_diff 1;
#N canvas 854 23 412 578 sort 0;
#X obj 51 345 list-sort;
#X obj 11 105 spigot;
#X msg 50 75 0;
#X obj 66 505 cyclone/prepend col 1;
#X obj 11 15 inlet mtx col 1;
#X obj 66 535 outlet mtx col 1;
#X msg 131 75 1;
#X obj 131 15 inlet enable;
#X obj 11 165 cyclone/prepend;
#X msg 157 145 matrix \$1 1;
#X obj 247 75 20;
#X obj 265 45 r \$0-newsize;
#X obj 11 285 mtx_slice;
#X msg 157 265 list 1 1 \$1 1;
#X obj 197 195 r \$0-count;
#X obj 157 235 1;
#X obj 157 195 bang;
#X obj 11 315 list split 3;
#X obj 247 106 t a a;
#X obj 26 375 list;
#X obj 279 345 mtx_zeros;
#X msg 279 265 \$1 1;
#X obj 26 445 mtx_fill;
#X msg 311 405 matrix 1 1;
#X obj 279 375 t a b;
#X obj 26 475 list split 3;
#X obj 26 405 list trim;
#X obj 131 45 trigger bang bang;
#X connect 0 0 19 1;
#X connect 1 0 2 0;
#X connect 1 0 8 0;
#X connect 2 0 1 1;
#X connect 3 0 5 0;
#X connect 4 0 1 0;
#X connect 6 0 1 1;
#X connect 7 0 27 0;
#X connect 8 0 12 0;
#X connect 9 0 8 1;
#X connect 9 0 16 0;
#X connect 10 0 18 0;
#X connect 11 0 10 1;
#X connect 12 0 17 0;
#X connect 13 0 12 1;
#X connect 14 0 15 1;
#X connect 15 0 13 0;
#X connect 16 0 15 0;
#X connect 17 0 19 0;
#X connect 17 1 0 0;
#X connect 18 0 9 0;
#X connect 18 1 21 0;
#X connect 19 0 26 0;
#X connect 20 0 24 0;
#X connect 21 0 20 0;
#X connect 22 0 25 0;
#X connect 23 0 22 2;
#X connect 24 0 22 1;
#X connect 24 1 23 0;
#X connect 25 1 3 0;
#X connect 26 0 22 0;
#X connect 27 0 6 0;
#X connect 27 1 10 0;
#X restore 117 103 pd sort col 1;
#N canvas 421 22 425 577 diff 1;
#X obj 51 532 outlet mtx col 2;
#X obj 11 105 spigot;
#X msg 50 75 0;
#X obj 11 15 inlet mtx col 1;
#X msg 131 75 1;
#X obj 131 15 inlet enable;
#X obj 11 165 cyclone/prepend;
#X msg 154 145 matrix \$1 1;
#X obj 247 75 20;
#X obj 265 45 r \$0-newsize;
#X obj 11 305 mtx_slice;
#X obj 194 195 r \$0-count;
#X obj 154 225 1;
#X obj 154 195 bang;
#X obj 247 106 t a a;
#X obj 279 345 mtx_zeros;
#X msg 279 285 \$1 1;
#X obj 11 445 mtx_fill;
#X obj 279 375 t a b;
#X obj 11 475 list split 3;
#X obj 131 45 trigger bang bang;
#X msg 172 285 list 2 1 \$1 1;
#X obj 11 345 mtx_diff;
#X obj 51 505 cyclone/prepend col 2;
#X msg 311 405 matrix 1 1;
#X obj 126 255 moses 2;
#X connect 1 0 2 0;
#X connect 1 0 6 0;
#X connect 2 0 1 1;
#X connect 3 0 1 0;
#X connect 4 0 1 1;
#X connect 5 0 20 0;
#X connect 6 0 10 0;
#X connect 7 0 6 1;
#X connect 7 0 13 0;
#X connect 8 0 14 0;
#X connect 9 0 8 1;
#X connect 10 0 22 0;
#X connect 11 0 12 1;
#X connect 12 0 25 0;
#X connect 13 0 12 0;
#X connect 14 0 7 0;
#X connect 14 1 16 0;
#X connect 15 0 18 0;
#X connect 16 0 15 0;
#X connect 17 0 19 0;
#X connect 18 0 17 1;
#X connect 18 1 24 0;
#X connect 19 1 23 0;
#X connect 20 0 4 0;
#X connect 20 1 8 0;
#X connect 21 0 10 1;
#X connect 22 0 17 0;
#X connect 23 0 0 0;
#X connect 24 0 17 2;
#X connect 25 1 21 0;
#X restore 10 235 pd diff col 1 to col 2;
#X msg 89 173 col 1;
#X obj 10 205 r \$0-mo;
#X obj 117 74 r \$0-mo;
#X obj 89 44 trigger bang bang;
#X obj 89 14 inlet;
#X obj 117 135 trigger b b a;
#X obj 10 265 s \$0-m1;
#X obj 205 175 s \$0-m1;
#X obj 89 204 s \$0-m1;
#X connect 0 0 7 0;
#X connect 1 0 8 0;
#X connect 2 0 10 0;
#X connect 3 0 1 0;
#X connect 4 0 0 0;
#X connect 5 0 2 0;
#X connect 5 1 0 1;
#X connect 6 0 5 0;
#X connect 7 0 2 0;
#X connect 7 1 1 1;
#X connect 7 2 9 0;
#X restore 270 84 pd sort_diff;
#X obj -49 285 r \$0-mo;
#X obj 63 355 s \$0-newsize;
#X obj 216 144 s \$0-m2;
#X obj 216 114 mtx_zeros;
#X obj -27 175 s \$0-count;
#X obj 216 44 route clear sort;
#X obj 216 14 inlet clear/sort;
#X obj -27 144 + 1;
#X connect 0 0 40 0;
#X connect 1 0 34 0;
#X connect 2 0 0 0;
#X connect 2 0 5 0;
#X connect 3 0 6 0;
#X connect 3 0 44 0;
#X connect 4 0 25 0;
#X connect 5 0 3 0;
#X connect 6 0 7 0;
#X connect 7 0 8 0;
#X connect 8 0 9 0;
#X connect 8 0 12 0;
#X connect 8 0 23 0;
#X connect 9 0 10 0;
#X connect 10 0 22 0;
#X connect 10 0 38 0;
#X connect 11 0 13 0;
#X connect 11 0 1 0;
#X connect 12 0 11 1;
#X connect 13 0 11 1;
#X connect 14 0 24 0;
#X connect 15 0 32 0;
#X connect 16 0 18 0;
#X connect 16 0 35 0;
#X connect 18 0 20 0;
#X connect 18 0 17 0;
#X connect 19 0 18 1;
#X connect 20 0 18 1;
#X connect 21 0 15 0;
#X connect 21 1 19 0;
#X connect 22 0 1 1;
#X connect 23 0 33 0;
#X connect 23 1 12 0;
#X connect 24 1 21 0;
#X connect 25 0 27 0;
#X connect 25 1 3 0;
#X connect 26 0 33 0;
#X connect 27 0 26 0;
#X connect 30 0 16 0;
#X connect 31 0 16 1;
#X connect 37 0 11 0;
#X connect 40 0 39 0;
#X connect 42 0 5 0;
#X connect 42 0 0 0;
#X connect 42 1 36 0;
#X connect 43 0 42 0;
#X connect 44 0 27 1;
#X connect 44 0 41 0;
